# xmcd
#
# Track frame offsets:
#	150
#	72155
#	124661
#	164416
#	166447
#
# Disc length: 2557 seconds
#
# Revision: 1
# Processed by: cddbd v1.5.2PL0 Copyright (c) Steve Scherf et al.
# Submitted via: audiograbber 1.83.01
#
DISCID=3e09fb05
DTITLE=Grateful Dead - 78-04-06 Curtis Hixon Convention Hall, Tampa FL
DYEAR=1900
DGENRE=
TTITLE0=The Other One
TTITLE1=Wharf Rat
TTITLE2=Around and Around
TTITLE3=Crowd Noise
TTITLE4=US Blues
EXTD=
EXTT0=
EXTT1=
EXTT2=
EXTT3=
EXTT4=
PLAYORDER=
